<svg width="363" height="470" viewBox="0 0 363 470" fill="none" xmlns="http://www.w3.org/2000/svg">
<path d="M21.3332 213.333L14.6665 249.333L42.6665 277.333L128 448L298.667 454.667L320 405.467L341.333 341.333L348 198.667L320 170.667L277.333 149.333L213.333 128L170.667 121.333L149.333 21.3334H106.667L99.9998 249.333L57.3332 206.667L21.3332 213.333Z" fill="white"/>
<path d="M85.3333 21.3333H106.667V256H85.3333V234.667H64V213.333H85.3333V21.3333ZM341.333 192V341.333H362.667V192H341.333ZM0 192V256H21.3333V213.333H64V192H0ZM64 320V277.333H42.6667V320H64ZM85.3333 362.667V320H64V362.667H85.3333ZM106.667 405.333V469.333H320V405.467H298.667V448H128V405.333H106.667V362.667H85.3333V405.333H106.667ZM320 405.333H341.333V341.333H320V405.333ZM42.6667 277.333V256H21.3333V277.333H42.6667ZM320 170.667V192H341.333V170.667H320ZM277.333 149.333V234.667H298.667V170.667H320V149.333H277.333ZM213.333 128V213.333H234.667V149.333H277.333V128H213.333ZM170.667 106.667V21.3333H149.333V213.333H170.667V128H213.333V106.667H170.667ZM106.667 0V21.3333H149.333V0H106.667Z" fill="black"/>
</svg>
